<?xml version="1.0" encoding="UTF-8"?>
<svg xmlns="http://www.w3.org/2000/svg" version="1.1" viewBox="0 0 16 16">
  <defs>
    <style>
      .cls-1 {
        fill: #f58c00;
      }
    </style>
  </defs>
  <!-- Generator: Adobe Illustrator 28.7.1, SVG Export Plug-In . SVG Version: 1.2.0 Build 142)  -->
  <g>
    <g id="Layer_1">
      <path class="cls-1" d="M6.94,15.46c-1.11,0-2.01-.05-2.84-.3-1.71-.51-2.84-1.61-3.23-3.37-.49-.11-.87-.55-.87-1.08,0-.58.49-1.08,1.09-1.08s1.09.49,1.09,1.08c0,.12-.02.25-.07.37h.07c.37,0,.39-.32.37-.69-.02-.09-.02-.32-.02-.41,0-.79.18-1.54.48-2.23-1.71-.3-3.02-1.8-3.02-3.58C0,2.16,1.62.54,3.64.54s3.64,1.62,3.64,3.64c0,.14-.02.26-.04.41.25-.04.49-.05.76-.05s.51.02.76.05c-.02-.14-.04-.26-.04-.41,0-2.01,1.64-3.64,3.64-3.64s3.64,1.62,3.64,3.64c0,1.78-1.31,3.28-3.02,3.58.3.69.48,1.43.48,2.23,0,3.02-2.17,5.46-5.46,5.46-.34,0-1.06.02-1.06.02ZM4.49,10.36c0,.74.6,1.34,1.34,1.34s1.32-.6,1.32-1.34v-1.94c0-.74-.58-1.32-1.32-1.32s-1.34.58-1.34,1.32v1.94ZM5.09,10.3v-1.82c0-.41.34-.74.74-.74s.72.34.72.74v.42l-.85.55.85.51v.34c0,.41-.32.72-.72.72s-.74-.32-.74-.72ZM8.85,10.36c0,.74.6,1.34,1.34,1.34s1.34-.6,1.34-1.34v-1.94c0-.74-.6-1.32-1.34-1.32s-1.34.58-1.34,1.32v1.94ZM9.47,10.3v-1.82c0-.41.32-.74.72-.74s.72.34.72.74v.42l-.85.55.85.51v.34c0,.41-.32.72-.72.72s-.72-.32-.72-.72Z"/>
    </g>
  </g>
</svg>